<?xml version="1.0" encoding="utf-8" ?>
<!DOCTYPE svg PUBLIC "-//W3C//DTD SVG 1.1//EN" "http://www.w3.org/Graphics/SVG/1.1/DTD/svg11.dtd">
<svg height="556" version="1.1" width="1112" xmlns="http://www.w3.org/2000/svg">
<rect fill="#ffffff" height="73" stroke="#ffffff" stroke-width="1" width="144" x="750" y="182"/>
<rect fill="#ffffff" height="0" stroke="#ffffff" stroke-width="1" width="144" x="750" y="182"/>
<rect fill="none" height="0" stroke="#000000" stroke-width="1" width="144" x="750" y="182"/>
<rect fill="#ffffff" height="23" stroke="#ffffff" stroke-width="1" width="144" x="750" y="182"/>
<text font-family="Dialog" font-size="12" x="763" y="198">
ResourceDescription</text>
<rect fill="#ffffff" height="24" stroke="#ffffff" stroke-width="1" width="144" x="750" y="230"/>
<line fill="#000000" stroke="#000000" stroke-width="1" x1="750" x2="893" y1="230" y2="230"/>
<rect fill="#ffffff" height="25" stroke="#ffffff" stroke-width="1" width="144" x="750" y="205"/>
<line fill="#000000" stroke="#000000" stroke-width="1" x1="750" x2="893" y1="205" y2="205"/>
<text font-family="Dialog" font-size="12" x="753" y="222">
properties : Property</text>
<rect fill="none" height="73" stroke="#000000" stroke-width="1" width="144" x="750" y="182"/>
<rect fill="#ffffff" height="72" stroke="#ffffff" stroke-width="1" width="128" x="940" y="182"/>
<rect fill="#ffffff" height="0" stroke="#ffffff" stroke-width="1" width="128" x="940" y="182"/>
<rect fill="none" height="0" stroke="#000000" stroke-width="1" width="128" x="940" y="182"/>
<rect fill="#ffffff" height="23" stroke="#ffffff" stroke-width="1" width="128" x="940" y="182"/>
<text font-family="Dialog" font-size="12" x="981" y="198">
Property</text>
<rect fill="#ffffff" height="26" stroke="#ffffff" stroke-width="1" width="128" x="940" y="227"/>
<line fill="#000000" stroke="#000000" stroke-width="1" x1="940" x2="1067" y1="227" y2="227"/>
<rect fill="#ffffff" height="22" stroke="#ffffff" stroke-width="1" width="128" x="940" y="205"/>
<line fill="#000000" stroke="#000000" stroke-width="1" x1="940" x2="1067" y1="205" y2="205"/>
<rect fill="none" height="72" stroke="#000000" stroke-width="1" width="128" x="940" y="182"/>
<rect fill="#ffffff" height="88" stroke="#ffffff" stroke-width="1" width="192" x="102" y="166"/>
<rect fill="#ffffff" height="0" stroke="#ffffff" stroke-width="1" width="192" x="102" y="166"/>
<rect fill="none" height="0" stroke="#000000" stroke-width="1" width="192" x="102" y="166"/>
<rect fill="#ffffff" height="23" stroke="#ffffff" stroke-width="1" width="192" x="102" y="166"/>
<text font-family="Dialog" font-size="12" x="158" y="182">
HTTPResolver</text>
<rect fill="#ffffff" height="36" stroke="#ffffff" stroke-width="1" width="192" x="102" y="217"/>
<line fill="#000000" stroke="#000000" stroke-width="1" x1="102" x2="293" y1="217" y2="217"/>
<text font-family="Dialog" font-size="12" x="105" y="234">
getResponse()</text>
<rect fill="#ffffff" height="28" stroke="#ffffff" stroke-width="1" width="192" x="102" y="189"/>
<line fill="#000000" stroke="#000000" stroke-width="1" x1="102" x2="293" y1="189" y2="189"/>
<rect fill="none" height="88" stroke="#000000" stroke-width="1" width="192" x="102" y="166"/>
<rect fill="#ffffff" height="73" stroke="#ffffff" stroke-width="1" width="244" x="718" y="390"/>
<rect fill="#ffffff" height="0" stroke="#ffffff" stroke-width="1" width="244" x="718" y="390"/>
<rect fill="none" height="0" stroke="#000000" stroke-width="1" width="244" x="718" y="390"/>
<rect fill="#ffffff" height="23" stroke="#ffffff" stroke-width="1" width="244" x="718" y="390"/>
<text font-family="Dialog" font-size="12" x="786" y="406">
ResolverResponse</text>
<rect fill="#ffffff" height="24" stroke="#ffffff" stroke-width="1" width="244" x="718" y="438"/>
<line fill="#000000" stroke="#000000" stroke-width="1" x1="718" x2="961" y1="438" y2="438"/>
<rect fill="#ffffff" height="25" stroke="#ffffff" stroke-width="1" width="244" x="718" y="413"/>
<line fill="#000000" stroke="#000000" stroke-width="1" x1="718" x2="961" y1="413" y2="413"/>
<text font-family="Dialog" font-size="12" x="721" y="430">
resourceDescription : ResourceDescription</text>
<rect fill="none" height="73" stroke="#000000" stroke-width="1" width="244" x="718" y="390"/>
<line fill="#000000" stroke="#000000" stroke-width="1" x1="894" x2="899" y1="214" y2="214"/>
<line fill="#000000" stroke="#000000" stroke-width="1" x1="904" x2="909" y1="214" y2="214"/>
<line fill="#000000" stroke="#000000" stroke-width="1" x1="914" x2="919" y1="214" y2="214"/>
<line fill="#000000" stroke="#000000" stroke-width="1" x1="924" x2="929" y1="214" y2="214"/>
<line fill="#000000" stroke="#000000" stroke-width="1" x1="934" x2="939" y1="214" y2="214"/>
<line fill="#000000" stroke="#000000" stroke-width="1" x1="928" x2="940" y1="221" y2="214"/>
<line fill="#000000" stroke="#000000" stroke-width="1" x1="928" x2="940" y1="207" y2="214"/>
<line fill="#000000" stroke="#000000" stroke-width="1" x1="825" x2="825" y1="390" y2="385"/>
<line fill="#000000" stroke="#000000" stroke-width="1" x1="825" x2="825" y1="380" y2="375"/>
<line fill="#000000" stroke="#000000" stroke-width="1" x1="825" x2="825" y1="370" y2="365"/>
<line fill="#000000" stroke="#000000" stroke-width="1" x1="825" x2="825" y1="360" y2="355"/>
<line fill="#000000" stroke="#000000" stroke-width="1" x1="825" x2="825" y1="350" y2="345"/>
<line fill="#000000" stroke="#000000" stroke-width="1" x1="825" x2="825" y1="340" y2="335"/>
<line fill="#000000" stroke="#000000" stroke-width="1" x1="825" x2="825" y1="330" y2="325"/>
<line fill="#000000" stroke="#000000" stroke-width="1" x1="825" x2="825" y1="320" y2="315"/>
<line fill="#000000" stroke="#000000" stroke-width="1" x1="825" x2="825" y1="310" y2="305"/>
<line fill="#000000" stroke="#000000" stroke-width="1" x1="825" x2="825" y1="300" y2="295"/>
<line fill="#000000" stroke="#000000" stroke-width="1" x1="825" x2="825" y1="290" y2="285"/>
<line fill="#000000" stroke="#000000" stroke-width="1" x1="825" x2="825" y1="280" y2="275"/>
<line fill="#000000" stroke="#000000" stroke-width="1" x1="825" x2="825" y1="270" y2="265"/>
<line fill="#000000" stroke="#000000" stroke-width="1" x1="825" x2="825" y1="260" y2="255"/>
<line fill="#000000" stroke="#000000" stroke-width="1" x1="832" x2="825" y1="267" y2="255"/>
<line fill="#000000" stroke="#000000" stroke-width="1" x1="818" x2="825" y1="267" y2="255"/>
<rect fill="#ffffff" height="69" stroke="#ffffff" stroke-width="1" width="160" x="510" y="398"/>
<rect fill="#ffffff" height="0" stroke="#ffffff" stroke-width="1" width="160" x="510" y="398"/>
<rect fill="none" height="0" stroke="#000000" stroke-width="1" width="160" x="510" y="398"/>
<rect fill="#ffffff" height="23" stroke="#ffffff" stroke-width="1" width="160" x="510" y="398"/>
<text font-family="Dialog" font-size="12" x="539" y="414">
ResolverException</text>
<rect fill="#ffffff" height="24" stroke="#ffffff" stroke-width="1" width="160" x="510" y="442"/>
<line fill="#000000" stroke="#000000" stroke-width="1" x1="510" x2="669" y1="442" y2="442"/>
<rect fill="#ffffff" height="21" stroke="#ffffff" stroke-width="1" width="160" x="510" y="421"/>
<line fill="#000000" stroke="#000000" stroke-width="1" x1="510" x2="669" y1="421" y2="421"/>
<rect fill="none" height="69" stroke="#000000" stroke-width="1" width="160" x="510" y="398"/>
<rect fill="#ffffff" height="72" stroke="#ffffff" stroke-width="1" width="144" x="334" y="430"/>
<rect fill="#ffffff" height="0" stroke="#ffffff" stroke-width="1" width="144" x="334" y="430"/>
<rect fill="none" height="0" stroke="#000000" stroke-width="1" width="144" x="334" y="430"/>
<rect fill="#ffffff" height="23" stroke="#ffffff" stroke-width="1" width="144" x="334" y="430"/>
<text font-family="Dialog" font-size="12" x="358" y="446">
ResolverRequest</text>
<rect fill="#ffffff" height="26" stroke="#ffffff" stroke-width="1" width="144" x="334" y="475"/>
<line fill="#000000" stroke="#000000" stroke-width="1" x1="334" x2="477" y1="475" y2="475"/>
<rect fill="#ffffff" height="22" stroke="#ffffff" stroke-width="1" width="144" x="334" y="453"/>
<line fill="#000000" stroke="#000000" stroke-width="1" x1="334" x2="477" y1="453" y2="453"/>
<rect fill="none" height="72" stroke="#000000" stroke-width="1" width="144" x="334" y="430"/>
<line fill="#000000" stroke="#000000" stroke-width="1" x1="294" x2="298" y1="254" y2="256"/>
<line fill="#000000" stroke="#000000" stroke-width="1" x1="302" x2="306" y1="259" y2="262"/>
<line fill="#000000" stroke="#000000" stroke-width="1" x1="310" x2="314" y1="265" y2="267"/>
<line fill="#000000" stroke="#000000" stroke-width="1" x1="319" x2="323" y1="270" y2="273"/>
<line fill="#000000" stroke="#000000" stroke-width="1" x1="327" x2="331" y1="276" y2="279"/>
<line fill="#000000" stroke="#000000" stroke-width="1" x1="335" x2="339" y1="281" y2="284"/>
<line fill="#000000" stroke="#000000" stroke-width="1" x1="344" x2="348" y1="287" y2="290"/>
<line fill="#000000" stroke="#000000" stroke-width="1" x1="352" x2="356" y1="292" y2="295"/>
<line fill="#000000" stroke="#000000" stroke-width="1" x1="360" x2="364" y1="298" y2="301"/>
<line fill="#000000" stroke="#000000" stroke-width="1" x1="369" x2="373" y1="304" y2="306"/>
<line fill="#000000" stroke="#000000" stroke-width="1" x1="377" x2="381" y1="309" y2="312"/>
<line fill="#000000" stroke="#000000" stroke-width="1" x1="385" x2="389" y1="315" y2="317"/>
<line fill="#000000" stroke="#000000" stroke-width="1" x1="394" x2="398" y1="320" y2="323"/>
<line fill="#000000" stroke="#000000" stroke-width="1" x1="402" x2="406" y1="326" y2="329"/>
<line fill="#000000" stroke="#000000" stroke-width="1" x1="410" x2="414" y1="331" y2="334"/>
<line fill="#000000" stroke="#000000" stroke-width="1" x1="419" x2="423" y1="337" y2="340"/>
<line fill="#000000" stroke="#000000" stroke-width="1" x1="427" x2="431" y1="342" y2="345"/>
<line fill="#000000" stroke="#000000" stroke-width="1" x1="435" x2="439" y1="348" y2="351"/>
<line fill="#000000" stroke="#000000" stroke-width="1" x1="444" x2="448" y1="354" y2="356"/>
<line fill="#000000" stroke="#000000" stroke-width="1" x1="452" x2="456" y1="359" y2="362"/>
<line fill="#000000" stroke="#000000" stroke-width="1" x1="460" x2="464" y1="365" y2="367"/>
<line fill="#000000" stroke="#000000" stroke-width="1" x1="469" x2="473" y1="370" y2="373"/>
<line fill="#000000" stroke="#000000" stroke-width="1" x1="477" x2="481" y1="376" y2="379"/>
<line fill="#000000" stroke="#000000" stroke-width="1" x1="485" x2="489" y1="381" y2="384"/>
<line fill="#000000" stroke="#000000" stroke-width="1" x1="494" x2="498" y1="387" y2="390"/>
<line fill="#000000" stroke="#000000" stroke-width="1" x1="502" x2="506" y1="392" y2="395"/>
<line fill="#000000" stroke="#000000" stroke-width="1" x1="496" x2="510" y1="397" y2="398"/>
<line fill="#000000" stroke="#000000" stroke-width="1" x1="503" x2="510" y1="385" y2="398"/>
<line fill="#000000" stroke="#000000" stroke-width="1" x1="294" x2="295" y1="254" y2="258"/>
<line fill="#000000" stroke="#000000" stroke-width="1" x1="296" x2="297" y1="263" y2="268"/>
<line fill="#000000" stroke="#000000" stroke-width="1" x1="298" x2="299" y1="273" y2="278"/>
<line fill="#000000" stroke="#000000" stroke-width="1" x1="300" x2="301" y1="283" y2="288"/>
<line fill="#000000" stroke="#000000" stroke-width="1" x1="302" x2="304" y1="293" y2="298"/>
<line fill="#000000" stroke="#000000" stroke-width="1" x1="305" x2="306" y1="302" y2="307"/>
<line fill="#000000" stroke="#000000" stroke-width="1" x1="307" x2="308" y1="312" y2="317"/>
<line fill="#000000" stroke="#000000" stroke-width="1" x1="309" x2="310" y1="322" y2="327"/>
<line fill="#000000" stroke="#000000" stroke-width="1" x1="311" x2="312" y1="332" y2="337"/>
<line fill="#000000" stroke="#000000" stroke-width="1" x1="314" x2="315" y1="342" y2="346"/>
<line fill="#000000" stroke="#000000" stroke-width="1" x1="316" x2="317" y1="351" y2="356"/>
<line fill="#000000" stroke="#000000" stroke-width="1" x1="318" x2="319" y1="361" y2="366"/>
<line fill="#000000" stroke="#000000" stroke-width="1" x1="320" x2="321" y1="371" y2="376"/>
<line fill="#000000" stroke="#000000" stroke-width="1" x1="322" x2="324" y1="381" y2="386"/>
<line fill="#000000" stroke="#000000" stroke-width="1" x1="325" x2="326" y1="390" y2="395"/>
<line fill="#000000" stroke="#000000" stroke-width="1" x1="327" x2="328" y1="400" y2="405"/>
<line fill="#000000" stroke="#000000" stroke-width="1" x1="329" x2="330" y1="410" y2="415"/>
<line fill="#000000" stroke="#000000" stroke-width="1" x1="331" x2="332" y1="420" y2="425"/>
<line fill="#000000" stroke="#000000" stroke-width="1" x1="324" x2="334" y1="419" y2="430"/>
<line fill="#000000" stroke="#000000" stroke-width="1" x1="338" x2="334" y1="416" y2="430"/>
<line fill="#000000" stroke="#000000" stroke-width="1" x1="294" x2="298" y1="254" y2="255"/>
<line fill="#000000" stroke="#000000" stroke-width="1" x1="303" x2="308" y1="257" y2="258"/>
<line fill="#000000" stroke="#000000" stroke-width="1" x1="313" x2="317" y1="260" y2="261"/>
<line fill="#000000" stroke="#000000" stroke-width="1" x1="322" x2="327" y1="263" y2="264"/>
<line fill="#000000" stroke="#000000" stroke-width="1" x1="332" x2="336" y1="266" y2="267"/>
<line fill="#000000" stroke="#000000" stroke-width="1" x1="341" x2="346" y1="269" y2="270"/>
<line fill="#000000" stroke="#000000" stroke-width="1" x1="351" x2="355" y1="272" y2="273"/>
<line fill="#000000" stroke="#000000" stroke-width="1" x1="360" x2="365" y1="275" y2="276"/>
<line fill="#000000" stroke="#000000" stroke-width="1" x1="370" x2="374" y1="278" y2="279"/>
<line fill="#000000" stroke="#000000" stroke-width="1" x1="379" x2="384" y1="281" y2="283"/>
<line fill="#000000" stroke="#000000" stroke-width="1" x1="389" x2="394" y1="284" y2="286"/>
<line fill="#000000" stroke="#000000" stroke-width="1" x1="398" x2="403" y1="287" y2="289"/>
<line fill="#000000" stroke="#000000" stroke-width="1" x1="408" x2="413" y1="290" y2="292"/>
<line fill="#000000" stroke="#000000" stroke-width="1" x1="417" x2="422" y1="293" y2="295"/>
<line fill="#000000" stroke="#000000" stroke-width="1" x1="427" x2="432" y1="296" y2="298"/>
<line fill="#000000" stroke="#000000" stroke-width="1" x1="436" x2="441" y1="299" y2="301"/>
<line fill="#000000" stroke="#000000" stroke-width="1" x1="446" x2="451" y1="302" y2="304"/>
<line fill="#000000" stroke="#000000" stroke-width="1" x1="455" x2="460" y1="305" y2="307"/>
<line fill="#000000" stroke="#000000" stroke-width="1" x1="465" x2="470" y1="309" y2="310"/>
<line fill="#000000" stroke="#000000" stroke-width="1" x1="475" x2="479" y1="312" y2="313"/>
<line fill="#000000" stroke="#000000" stroke-width="1" x1="484" x2="489" y1="315" y2="316"/>
<line fill="#000000" stroke="#000000" stroke-width="1" x1="494" x2="498" y1="318" y2="319"/>
<line fill="#000000" stroke="#000000" stroke-width="1" x1="503" x2="508" y1="321" y2="322"/>
<line fill="#000000" stroke="#000000" stroke-width="1" x1="513" x2="517" y1="324" y2="325"/>
<line fill="#000000" stroke="#000000" stroke-width="1" x1="522" x2="527" y1="327" y2="328"/>
<line fill="#000000" stroke="#000000" stroke-width="1" x1="532" x2="536" y1="330" y2="331"/>
<line fill="#000000" stroke="#000000" stroke-width="1" x1="541" x2="546" y1="333" y2="334"/>
<line fill="#000000" stroke="#000000" stroke-width="1" x1="551" x2="556" y1="336" y2="338"/>
<line fill="#000000" stroke="#000000" stroke-width="1" x1="560" x2="565" y1="339" y2="341"/>
<line fill="#000000" stroke="#000000" stroke-width="1" x1="570" x2="575" y1="342" y2="344"/>
<line fill="#000000" stroke="#000000" stroke-width="1" x1="579" x2="584" y1="345" y2="347"/>
<line fill="#000000" stroke="#000000" stroke-width="1" x1="589" x2="594" y1="348" y2="350"/>
<line fill="#000000" stroke="#000000" stroke-width="1" x1="598" x2="603" y1="351" y2="353"/>
<line fill="#000000" stroke="#000000" stroke-width="1" x1="608" x2="613" y1="354" y2="356"/>
<line fill="#000000" stroke="#000000" stroke-width="1" x1="617" x2="622" y1="357" y2="359"/>
<line fill="#000000" stroke="#000000" stroke-width="1" x1="627" x2="632" y1="360" y2="362"/>
<line fill="#000000" stroke="#000000" stroke-width="1" x1="637" x2="641" y1="364" y2="365"/>
<line fill="#000000" stroke="#000000" stroke-width="1" x1="646" x2="651" y1="367" y2="368"/>
<line fill="#000000" stroke="#000000" stroke-width="1" x1="656" x2="660" y1="370" y2="371"/>
<line fill="#000000" stroke="#000000" stroke-width="1" x1="665" x2="670" y1="373" y2="374"/>
<line fill="#000000" stroke="#000000" stroke-width="1" x1="675" x2="679" y1="376" y2="377"/>
<line fill="#000000" stroke="#000000" stroke-width="1" x1="684" x2="689" y1="379" y2="380"/>
<line fill="#000000" stroke="#000000" stroke-width="1" x1="694" x2="698" y1="382" y2="383"/>
<line fill="#000000" stroke="#000000" stroke-width="1" x1="703" x2="708" y1="385" y2="386"/>
<line fill="#000000" stroke="#000000" stroke-width="1" x1="713" x2="718" y1="388" y2="390"/>
<line fill="#000000" stroke="#000000" stroke-width="1" x1="704" x2="718" y1="393" y2="390"/>
<line fill="#000000" stroke="#000000" stroke-width="1" x1="708" x2="718" y1="379" y2="390"/>
<rect fill="#ffffff" height="89" stroke="#ffffff" stroke-width="1" width="341" x="326" y="166"/>
<rect fill="#ffffff" height="0" stroke="#ffffff" stroke-width="1" width="341" x="326" y="166"/>
<rect fill="none" height="0" stroke="#000000" stroke-width="1" width="341" x="326" y="166"/>
<rect fill="#ffffff" height="23" stroke="#ffffff" stroke-width="1" width="341" x="326" y="166"/>
<text font-family="Dialog" font-size="12" x="433" y="182">
erds::ResolvingService</text>
<rect fill="#ffffff" height="24" stroke="#ffffff" stroke-width="1" width="341" x="326" y="230"/>
<line fill="#000000" stroke="#000000" stroke-width="1" x1="326" x2="666" y1="230" y2="230"/>
<rect fill="#ffffff" height="41" stroke="#ffffff" stroke-width="1" width="341" x="326" y="189"/>
<line fill="#000000" stroke="#000000" stroke-width="1" x1="326" x2="666" y1="189" y2="189"/>
<text font-family="Dialog" font-size="12" x="329" y="206">
resourceDescriptionProviders : ResourceDescriptionProvider</text>
<text font-family="Dialog" font-size="12" x="329" y="222">
resolvers : Resolver</text>
<rect fill="none" height="89" stroke="#000000" stroke-width="1" width="341" x="326" y="166"/>
<line fill="#000000" stroke="#000000" stroke-width="1" x1="438" x2="438" y1="255" y2="260"/>
<line fill="#000000" stroke="#000000" stroke-width="1" x1="438" x2="438" y1="265" y2="270"/>
<line fill="#000000" stroke="#000000" stroke-width="1" x1="438" x2="438" y1="275" y2="280"/>
<line fill="#000000" stroke="#000000" stroke-width="1" x1="438" x2="438" y1="285" y2="290"/>
<line fill="#000000" stroke="#000000" stroke-width="1" x1="438" x2="438" y1="295" y2="300"/>
<line fill="#000000" stroke="#000000" stroke-width="1" x1="438" x2="438" y1="305" y2="310"/>
<line fill="#000000" stroke="#000000" stroke-width="1" x1="438" x2="438" y1="315" y2="320"/>
<line fill="#000000" stroke="#000000" stroke-width="1" x1="438" x2="438" y1="325" y2="330"/>
<line fill="#000000" stroke="#000000" stroke-width="1" x1="438" x2="438" y1="335" y2="340"/>
<line fill="#000000" stroke="#000000" stroke-width="1" x1="438" x2="438" y1="345" y2="350"/>
<line fill="#000000" stroke="#000000" stroke-width="1" x1="438" x2="438" y1="355" y2="360"/>
<line fill="#000000" stroke="#000000" stroke-width="1" x1="438" x2="438" y1="365" y2="370"/>
<line fill="#000000" stroke="#000000" stroke-width="1" x1="438" x2="438" y1="375" y2="380"/>
<line fill="#000000" stroke="#000000" stroke-width="1" x1="438" x2="438" y1="385" y2="390"/>
<line fill="#000000" stroke="#000000" stroke-width="1" x1="438" x2="438" y1="395" y2="400"/>
<line fill="#000000" stroke="#000000" stroke-width="1" x1="438" x2="438" y1="405" y2="410"/>
<line fill="#000000" stroke="#000000" stroke-width="1" x1="438" x2="438" y1="415" y2="420"/>
<line fill="#000000" stroke="#000000" stroke-width="1" x1="438" x2="438" y1="425" y2="430"/>
<line fill="#000000" stroke="#000000" stroke-width="1" x1="431" x2="438" y1="418" y2="430"/>
<line fill="#000000" stroke="#000000" stroke-width="1" x1="445" x2="438" y1="418" y2="430"/>
<line fill="#000000" stroke="#000000" stroke-width="1" x1="598" x2="598" y1="255" y2="260"/>
<line fill="#000000" stroke="#000000" stroke-width="1" x1="598" x2="598" y1="265" y2="270"/>
<line fill="#000000" stroke="#000000" stroke-width="1" x1="598" x2="598" y1="275" y2="280"/>
<line fill="#000000" stroke="#000000" stroke-width="1" x1="598" x2="598" y1="285" y2="290"/>
<line fill="#000000" stroke="#000000" stroke-width="1" x1="598" x2="598" y1="295" y2="300"/>
<line fill="#000000" stroke="#000000" stroke-width="1" x1="598" x2="598" y1="305" y2="310"/>
<line fill="#000000" stroke="#000000" stroke-width="1" x1="598" x2="598" y1="315" y2="320"/>
<line fill="#000000" stroke="#000000" stroke-width="1" x1="598" x2="598" y1="325" y2="330"/>
<line fill="#000000" stroke="#000000" stroke-width="1" x1="598" x2="598" y1="335" y2="340"/>
<line fill="#000000" stroke="#000000" stroke-width="1" x1="598" x2="598" y1="345" y2="350"/>
<line fill="#000000" stroke="#000000" stroke-width="1" x1="598" x2="598" y1="355" y2="360"/>
<line fill="#000000" stroke="#000000" stroke-width="1" x1="598" x2="598" y1="365" y2="370"/>
<line fill="#000000" stroke="#000000" stroke-width="1" x1="598" x2="598" y1="375" y2="380"/>
<line fill="#000000" stroke="#000000" stroke-width="1" x1="598" x2="598" y1="385" y2="390"/>
<line fill="#000000" stroke="#000000" stroke-width="1" x1="598" x2="598" y1="395" y2="398"/>
<line fill="#000000" stroke="#000000" stroke-width="1" x1="591" x2="598" y1="386" y2="398"/>
<line fill="#000000" stroke="#000000" stroke-width="1" x1="605" x2="598" y1="386" y2="398"/>
<polygon fill="#ffffff" points="14,278 190,278 200,288 200,317 14,317 14,278" stroke="#ffffff" stroke-width="1"/>
<polyline fill="none" points="14,278 190,278 200,288 200,317 14,317 14,278" stroke="#000000" stroke-width="1"/>
<polygon fill="#ffffff" points="190,278 200,288 190,288 190,278" stroke="#ffffff" stroke-width="1"/>
<polyline fill="none" points="190,278 200,288 190,288 190,278" stroke="#000000" stroke-width="1"/>
<text font-family="Dialog" font-size="12" x="16" y="296">
Uses</text>
<text font-family="Dialog" font-size="12" x="16" y="312">
org.apache.commons.httpclient</text>
<line fill="#000000" stroke="#000000" stroke-width="1" x1="183" x2="183" y1="278" y2="273"/>
<line fill="#000000" stroke="#000000" stroke-width="1" x1="183" x2="183" y1="268" y2="263"/>
<line fill="#000000" stroke="#000000" stroke-width="1" x1="183" x2="183" y1="258" y2="254"/>
<polygon fill="#ffffff" points="558,486 693,486 703,496 703,541 558,541 558,486" stroke="#ffffff" stroke-width="1"/>
<polyline fill="none" points="558,486 693,486 703,496 703,541 558,541 558,486" stroke="#000000" stroke-width="1"/>
<polygon fill="#ffffff" points="693,486 703,496 693,496 693,486" stroke="#ffffff" stroke-width="1"/>
<polyline fill="none" points="693,486 703,496 693,496 693,486" stroke="#000000" stroke-width="1"/>
<text font-family="Dialog" font-size="12" x="560" y="504">
Has inner class:</text>
<text font-family="Dialog" font-size="12" x="560" y="520">
ResolverExceptionCode</text>
<line fill="#000000" stroke="#000000" stroke-width="1" x1="646" x2="646" y1="486" y2="481"/>
<line fill="#000000" stroke="#000000" stroke-width="1" x1="646" x2="646" y1="476" y2="471"/>
<line fill="#000000" stroke="#000000" stroke-width="1" x1="667" x2="672" y1="198" y2="198"/>
<line fill="#000000" stroke="#000000" stroke-width="1" x1="677" x2="682" y1="198" y2="198"/>
<line fill="#000000" stroke="#000000" stroke-width="1" x1="687" x2="692" y1="198" y2="198"/>
<line fill="#000000" stroke="#000000" stroke-width="1" x1="697" x2="702" y1="198" y2="198"/>
<line fill="#000000" stroke="#000000" stroke-width="1" x1="707" x2="712" y1="198" y2="198"/>
<line fill="#000000" stroke="#000000" stroke-width="1" x1="717" x2="722" y1="198" y2="198"/>
<line fill="#000000" stroke="#000000" stroke-width="1" x1="727" x2="732" y1="198" y2="198"/>
<line fill="#000000" stroke="#000000" stroke-width="1" x1="737" x2="742" y1="198" y2="198"/>
<line fill="#000000" stroke="#000000" stroke-width="1" x1="747" x2="750" y1="198" y2="198"/>
<line fill="#000000" stroke="#000000" stroke-width="1" x1="738" x2="750" y1="205" y2="198"/>
<line fill="#000000" stroke="#000000" stroke-width="1" x1="738" x2="750" y1="191" y2="198"/>
<line fill="#000000" stroke="#000000" stroke-width="1" x1="667" x2="668" y1="255" y2="259"/>
<line fill="#000000" stroke="#000000" stroke-width="1" x1="670" x2="672" y1="264" y2="269"/>
<line fill="#000000" stroke="#000000" stroke-width="1" x1="674" x2="675" y1="273" y2="278"/>
<line fill="#000000" stroke="#000000" stroke-width="1" x1="677" x2="679" y1="283" y2="287"/>
<line fill="#000000" stroke="#000000" stroke-width="1" x1="681" x2="682" y1="292" y2="297"/>
<line fill="#000000" stroke="#000000" stroke-width="1" x1="684" x2="686" y1="301" y2="306"/>
<line fill="#000000" stroke="#000000" stroke-width="1" x1="688" x2="690" y1="311" y2="315"/>
<line fill="#000000" stroke="#000000" stroke-width="1" x1="691" x2="693" y1="320" y2="325"/>
<line fill="#000000" stroke="#000000" stroke-width="1" x1="695" x2="697" y1="330" y2="334"/>
<line fill="#000000" stroke="#000000" stroke-width="1" x1="698" x2="700" y1="339" y2="344"/>
<line fill="#000000" stroke="#000000" stroke-width="1" x1="702" x2="704" y1="348" y2="353"/>
<line fill="#000000" stroke="#000000" stroke-width="1" x1="705" x2="707" y1="358" y2="362"/>
<line fill="#000000" stroke="#000000" stroke-width="1" x1="709" x2="711" y1="367" y2="372"/>
<line fill="#000000" stroke="#000000" stroke-width="1" x1="713" x2="714" y1="376" y2="381"/>
<line fill="#000000" stroke="#000000" stroke-width="1" x1="716" x2="718" y1="386" y2="390"/>
<line fill="#000000" stroke="#000000" stroke-width="1" x1="707" x2="718" y1="381" y2="390"/>
<line fill="#000000" stroke="#000000" stroke-width="1" x1="720" x2="718" y1="376" y2="390"/>
<rect fill="#ffffff" height="87" stroke="#ffffff" stroke-width="1" width="192" x="102" y="374"/>
<rect fill="#ffffff" height="0" stroke="#ffffff" stroke-width="1" width="192" x="102" y="374"/>
<rect fill="none" height="0" stroke="#000000" stroke-width="1" width="192" x="102" y="374"/>
<rect fill="#ffffff" height="23" stroke="#ffffff" stroke-width="1" width="192" x="102" y="374"/>
<text font-family="Dialog" font-size="12" x="119" y="390">
HTTPResolverMultiThreaded</text>
<rect fill="#ffffff" height="33" stroke="#ffffff" stroke-width="1" width="192" x="102" y="427"/>
<line fill="#000000" stroke="#000000" stroke-width="1" x1="102" x2="293" y1="427" y2="427"/>
<rect fill="#ffffff" height="30" stroke="#ffffff" stroke-width="1" width="192" x="102" y="397"/>
<line fill="#000000" stroke="#000000" stroke-width="1" x1="102" x2="293" y1="397" y2="397"/>
<rect fill="none" height="87" stroke="#000000" stroke-width="1" width="192" x="102" y="374"/>
<polyline fill="none" points="230,374 230,254" stroke="#000000" stroke-width="1"/>
<polygon fill="#ffffff" points="230,254 237,266 223,266" stroke="#ffffff" stroke-width="1"/>
<polygon fill="none" points="230,254 237,266 223,266" stroke="#000000" stroke-width="1"/>
<rect fill="#ffffff" height="66" stroke="#ffffff" stroke-width="1" width="336" x="158" y="14"/>
<rect fill="#ffffff" height="18" stroke="#ffffff" stroke-width="1" width="336" x="158" y="14"/>
<rect fill="none" height="18" stroke="#000000" stroke-width="1" width="336" x="158" y="14"/>
<text font-family="Dialog" font-size="12" x="288" y="31">
&lt;&lt;interface&gt;&gt;</text>
<rect fill="#ffffff" height="23" stroke="#ffffff" stroke-width="1" width="336" x="158" y="32"/>
<text font-family="Dialog" font-size="12" x="290" y="48">
DataProvider</text>
<rect fill="#ffffff" height="24" stroke="#ffffff" stroke-width="1" width="336" x="158" y="55"/>
<line fill="#000000" stroke="#000000" stroke-width="1" x1="158" x2="493" y1="55" y2="55"/>
<rect fill="none" height="66" stroke="#000000" stroke-width="1" width="336" x="158" y="14"/>
<line fill="#000000" stroke="#000000" stroke-width="1" x1="249" x2="249" y1="166" y2="161"/>
<line fill="#000000" stroke="#000000" stroke-width="1" x1="249" x2="249" y1="156" y2="151"/>
<line fill="#000000" stroke="#000000" stroke-width="1" x1="249" x2="249" y1="146" y2="141"/>
<line fill="#000000" stroke="#000000" stroke-width="1" x1="249" x2="249" y1="136" y2="131"/>
<line fill="#000000" stroke="#000000" stroke-width="1" x1="249" x2="249" y1="126" y2="121"/>
<line fill="#000000" stroke="#000000" stroke-width="1" x1="249" x2="249" y1="116" y2="111"/>
<line fill="#000000" stroke="#000000" stroke-width="1" x1="249" x2="249" y1="106" y2="101"/>
<line fill="#000000" stroke="#000000" stroke-width="1" x1="249" x2="249" y1="96" y2="91"/>
<line fill="#000000" stroke="#000000" stroke-width="1" x1="249" x2="249" y1="86" y2="81"/>
<polygon fill="#ffffff" points="249,80 256,92 242,92" stroke="#ffffff" stroke-width="1"/>
<polygon fill="none" points="249,80 256,92 242,92" stroke="#000000" stroke-width="1"/>
<text font-family="Dialog" font-size="12" x="170" y="139">
&lt;&lt;realize&gt;&gt;</text>
<line fill="#000000" stroke="#000000" stroke-width="1" x1="446" x2="446" y1="166" y2="161"/>
<line fill="#000000" stroke="#000000" stroke-width="1" x1="446" x2="446" y1="156" y2="151"/>
<line fill="#000000" stroke="#000000" stroke-width="1" x1="446" x2="446" y1="146" y2="141"/>
<line fill="#000000" stroke="#000000" stroke-width="1" x1="446" x2="446" y1="136" y2="131"/>
<line fill="#000000" stroke="#000000" stroke-width="1" x1="446" x2="446" y1="126" y2="121"/>
<line fill="#000000" stroke="#000000" stroke-width="1" x1="446" x2="446" y1="116" y2="111"/>
<line fill="#000000" stroke="#000000" stroke-width="1" x1="446" x2="446" y1="106" y2="101"/>
<line fill="#000000" stroke="#000000" stroke-width="1" x1="446" x2="446" y1="96" y2="91"/>
<line fill="#000000" stroke="#000000" stroke-width="1" x1="446" x2="446" y1="86" y2="81"/>
<polygon fill="#ffffff" points="446,80 453,92 439,92" stroke="#ffffff" stroke-width="1"/>
<polygon fill="none" points="446,80 453,92 439,92" stroke="#000000" stroke-width="1"/>
<text font-family="Dialog" font-size="12" x="367" y="139">
&lt;&lt;realize&gt;&gt;</text>
<rect fill="#ffffff" height="69" stroke="#ffffff" stroke-width="1" width="272" x="566" y="14"/>
<rect fill="#ffffff" height="0" stroke="#ffffff" stroke-width="1" width="272" x="566" y="14"/>
<rect fill="none" height="0" stroke="#000000" stroke-width="1" width="272" x="566" y="14"/>
<rect fill="#ffffff" height="23" stroke="#ffffff" stroke-width="1" width="272" x="566" y="14"/>
<text font-family="Dialog" font-size="12" x="667" y="30">
ResolverGUI</text>
<rect fill="#ffffff" height="24" stroke="#ffffff" stroke-width="1" width="272" x="566" y="58"/>
<line fill="#000000" stroke="#000000" stroke-width="1" x1="566" x2="837" y1="58" y2="58"/>
<rect fill="#ffffff" height="21" stroke="#ffffff" stroke-width="1" width="272" x="566" y="37"/>
<line fill="#000000" stroke="#000000" stroke-width="1" x1="566" x2="837" y1="37" y2="37"/>
<rect fill="none" height="69" stroke="#000000" stroke-width="1" width="272" x="566" y="14"/>
<line fill="#000000" stroke="#000000" stroke-width="1" x1="654" x2="654" y1="83" y2="88"/>
<line fill="#000000" stroke="#000000" stroke-width="1" x1="654" x2="654" y1="93" y2="98"/>
<line fill="#000000" stroke="#000000" stroke-width="1" x1="654" x2="654" y1="103" y2="108"/>
<line fill="#000000" stroke="#000000" stroke-width="1" x1="654" x2="654" y1="113" y2="118"/>
<line fill="#000000" stroke="#000000" stroke-width="1" x1="654" x2="654" y1="123" y2="128"/>
<line fill="#000000" stroke="#000000" stroke-width="1" x1="654" x2="654" y1="133" y2="138"/>
<line fill="#000000" stroke="#000000" stroke-width="1" x1="654" x2="654" y1="143" y2="148"/>
<line fill="#000000" stroke="#000000" stroke-width="1" x1="654" x2="654" y1="153" y2="158"/>
<line fill="#000000" stroke="#000000" stroke-width="1" x1="654" x2="654" y1="163" y2="166"/>
<line fill="#000000" stroke="#000000" stroke-width="1" x1="647" x2="654" y1="154" y2="166"/>
<line fill="#000000" stroke="#000000" stroke-width="1" x1="661" x2="654" y1="154" y2="166"/>
<polygon fill="#ffffff" points="822,102 1087,102 1097,112 1097,144 822,144 822,102" stroke="#ffffff" stroke-width="1"/>
<polyline fill="none" points="822,102 1087,102 1097,112 1097,144 822,144 822,102" stroke="#000000" stroke-width="1"/>
<polygon fill="#b2b2b2" points="1087,102 1097,112 1087,112 1087,102" stroke="#b2b2b2" stroke-width="1"/>
<polyline fill="none" points="1087,102 1097,112 1087,112 1087,102" stroke="#000000" stroke-width="1"/>
<text font-family="Dialog" font-size="12" x="824" y="120">
Uses</text>
<text font-family="Dialog" font-size="12" x="824" y="136">
org.springframework.web.servlet.ModelAndView</text>
<line fill="#000000" stroke="#000000" stroke-width="1" x1="838" x2="838" y1="83" y2="88"/>
<line fill="#000000" stroke="#000000" stroke-width="1" x1="838" x2="838" y1="93" y2="98"/>
</svg>
